<svg width="24" height="24" viewBox="0 0 24 24" fill="none" xmlns="http://www.w3.org/2000/svg">
<g clip-path="url(#clip0_1135_15478)">
<path d="M16.8037 2C17.0515 2 17.2896 2.09827 17.4648 2.27344C17.6401 2.44866 17.7382 2.68677 17.7383 2.93457V3.86914H19.2617C19.7574 3.86914 20.2325 4.06652 20.583 4.41699C20.9335 4.76749 21.1308 5.24261 21.1309 5.73828V20.1309C21.1308 20.6265 20.9335 21.1017 20.583 21.4521C20.2325 21.8026 19.7574 22 19.2617 22H4.86914C4.37355 21.9999 3.8983 21.8026 3.54785 21.4521C3.19742 21.1017 3.00005 20.6265 3 20.1309V5.73828C3.00004 5.24266 3.19742 4.76748 3.54785 4.41699C3.8983 4.06655 4.37355 3.86923 4.86914 3.86914H6.39258V2.93457C6.39262 2.68677 6.49177 2.44866 6.66699 2.27344C6.84216 2.09851 7.07959 2.00007 7.32715 2C7.57491 2 7.81304 2.0983 7.98828 2.27344C8.16351 2.44866 8.26167 2.68677 8.26172 2.93457V3.86914H15.8691V2.93457C15.8692 2.68677 15.9674 2.44866 16.1426 2.27344C16.3178 2.09821 16.5559 2.00004 16.8037 2ZM5.52344 8.72949C5.26542 8.72955 5.05664 8.93826 5.05664 9.19629C5.05664 9.45432 5.26542 9.66303 5.52344 9.66309H18.6074C18.8655 9.66309 19.0742 9.45436 19.0742 9.19629C19.0742 8.93822 18.8655 8.72949 18.6074 8.72949H5.52344Z" fill="#333333"/>
</g>
<defs>
<clipPath id="clip0_1135_15478">
<rect width="24" height="24" fill="white"/>
</clipPath>
</defs>
</svg>
