<svg width="16" height="16" viewBox="0 0 16 16" fill="none" xmlns="http://www.w3.org/2000/svg">
<path d="M8.00001 12.7667L10.5833 10.1833C10.7167 10.05 10.8722 9.98333 11.05 9.98333C11.2278 9.98333 11.3833 10.05 11.5167 10.1833C11.65 10.3167 11.7167 10.475 11.7167 10.6583C11.7167 10.8417 11.65 11 11.5167 11.1333L8.95001 13.7167C8.69445 13.9722 8.37778 14.1 8.00001 14.1C7.62223 14.1 7.30556 13.9722 7.05001 13.7167L4.46667 11.1333C4.33334 11 4.26945 10.8417 4.27501 10.6583C4.28056 10.475 4.35001 10.3167 4.48334 10.1833C4.61667 10.05 4.77501 9.98333 4.95834 9.98333C5.14167 9.98333 5.30001 10.05 5.43334 10.1833L8.00001 12.7667ZM8.00001 3.23333L5.43334 5.79999C5.30001 5.93333 5.14445 5.99722 4.96667 5.99166C4.7889 5.98611 4.63334 5.92222 4.50001 5.79999C4.36667 5.66666 4.29723 5.50833 4.29167 5.32499C4.28612 5.14166 4.35001 4.98333 4.48334 4.84999L7.05001 2.28333C7.30556 2.02777 7.62223 1.89999 8.00001 1.89999C8.37778 1.89999 8.69445 2.02777 8.95001 2.28333L11.5167 4.84999C11.65 4.98333 11.7139 5.14166 11.7083 5.32499C11.7028 5.50833 11.6333 5.66666 11.5 5.79999C11.3667 5.92222 11.2111 5.98611 11.0333 5.99166C10.8556 5.99722 10.7 5.93333 10.5667 5.79999L8.00001 3.23333Z" fill="#666666"/>
</svg>
