<svg width="24" height="24" viewBox="0 0 24 24" fill="none" xmlns="http://www.w3.org/2000/svg">
<g clip-path="url(#clip0_1135_15477)">
<mask id="path-1-inside-1_1135_15477" fill="white">
<path fill-rule="evenodd" clip-rule="evenodd" d="M16.4995 7.29709C16.4996 7.86144 16.3833 8.42029 16.1572 8.94171C15.9311 9.46313 15.5998 9.93692 15.182 10.336C14.7642 10.7351 14.2682 11.0517 13.7223 11.2678C13.1764 11.4838 12.5913 11.595 12.0005 11.595C10.8071 11.5952 9.66258 11.1425 8.81867 10.3366C7.97476 9.53078 7.50058 8.43774 7.50046 7.29796C7.5004 6.7336 7.61672 6.17476 7.84279 5.65334C8.06886 5.13192 8.40024 4.65813 8.81802 4.25903C9.66176 3.453 10.8062 3.00012 11.9995 3C13.1929 2.99988 14.3374 3.45255 15.1813 4.25841C16.0252 5.06427 16.4994 6.15731 16.4995 7.29709ZM12 12.9098C5.52048 12.9098 3 16.8482 3 18.6805C3 20.5119 8.36544 21 12 21C15.6346 21 21 20.5119 21 18.6805C21 16.8482 18.4795 12.9098 12 12.9098Z"/>
</mask>
<path d="M12.0005 11.595L12.0006 13.095L12.0005 11.595ZM7.50046 7.29796L9.00046 7.2978L7.50046 7.29796ZM8.81802 4.25903L7.78188 3.1744L8.81802 4.25903ZM16.4995 7.29709L14.9995 7.29725C14.9996 7.65481 14.926 8.01063 14.781 8.34504L16.1572 8.94171L17.5334 9.53838C17.8406 8.82995 17.9996 8.06808 17.9995 7.29693L16.4995 7.29709ZM16.1572 8.94171L14.781 8.34504C14.6359 8.67963 14.4213 8.98825 14.1458 9.2514L15.182 10.336L16.2181 11.4206C16.7782 10.8856 17.2264 10.2466 17.5334 9.53838L16.1572 8.94171ZM15.182 10.336L14.1458 9.2514C13.8702 9.51468 13.5393 9.72698 13.1704 9.87299L13.7223 11.2678L14.2743 12.6625C14.9971 12.3765 15.6582 11.9556 16.2181 11.4206L15.182 10.336ZM13.7223 11.2678L13.1704 9.87299C12.8013 10.019 12.4035 10.095 12.0003 10.095L12.0005 11.595L12.0006 13.095C12.7792 13.095 13.5516 12.9485 14.2743 12.6625L13.7223 11.2678ZM12.0005 11.595L12.0003 10.095C11.1831 10.0951 10.4124 9.7845 9.85459 9.25181L8.81867 10.3366L7.78275 11.4215C8.91272 12.5005 10.4311 13.0952 12.0006 13.095L12.0005 11.595ZM8.81867 10.3366L9.85459 9.25181C9.29908 8.72134 9.00054 8.01694 9.00046 7.2978L7.50046 7.29796L6.00046 7.29812C6.00063 8.85854 6.65043 10.3402 7.78275 11.4215L8.81867 10.3366ZM7.50046 7.29796L9.00046 7.2978C9.00042 6.94024 9.07403 6.58442 9.21901 6.25001L7.84279 5.65334L6.46657 5.05667C6.15942 5.7651 6.00038 6.52697 6.00046 7.29812L7.50046 7.29796ZM7.84279 5.65334L9.21901 6.25001C9.36408 5.91542 9.5787 5.60679 9.85416 5.34365L8.81802 4.25903L7.78188 3.1744C7.22178 3.70946 6.77364 4.34841 6.46657 5.05667L7.84279 5.65334ZM8.81802 4.25903L9.85416 5.34365C10.4119 4.81085 11.1825 4.50008 11.9997 4.5L11.9995 3L11.9994 1.5C10.4299 1.50015 8.91163 2.09515 7.78188 3.1744L8.81802 4.25903ZM11.9995 3L11.9997 4.5C12.8169 4.49992 13.5876 4.81054 14.1454 5.34324L15.1813 4.25841L16.2172 3.17357C15.0873 2.09455 13.5689 1.49985 11.9994 1.5L11.9995 3ZM15.1813 4.25841L14.1454 5.34324C14.7009 5.8737 14.9995 6.57811 14.9995 7.29725L16.4995 7.29709L17.9995 7.29693C17.9994 5.73651 17.3496 4.25483 16.2172 3.17357L15.1813 4.25841ZM12 12.9098V11.4098C4.94274 11.4098 1.5 15.7896 1.5 18.6805H3H4.5C4.5 17.9068 6.09822 14.4098 12 14.4098V12.9098ZM3 18.6805H1.5C1.5 19.9875 2.47357 20.7513 3.18058 21.1344C3.93892 21.5453 4.89791 21.8132 5.84931 21.9992C7.78019 22.3765 10.1386 22.5 12 22.5V21V19.5C10.2269 19.5 8.08525 19.3794 6.42476 19.0549C5.58049 18.8899 4.97096 18.6924 4.6097 18.4967C4.19711 18.2731 4.5 18.2892 4.5 18.6805H3ZM12 21V22.5C13.8614 22.5 16.2198 22.3765 18.1507 21.9992C19.1021 21.8132 20.0611 21.5453 20.8194 21.1344C21.5264 20.7513 22.5 19.9875 22.5 18.6805H21H19.5C19.5 18.2892 19.8029 18.2731 19.3903 18.4967C19.029 18.6924 18.4195 18.8899 17.5752 19.0549C15.9148 19.3794 13.7731 19.5 12 19.5V21ZM21 18.6805H22.5C22.5 15.7896 19.0573 11.4098 12 11.4098V12.9098V14.4098C17.9018 14.4098 19.5 17.9069 19.5 18.6805H21Z" fill="#999999" mask="url(#path-1-inside-1_1135_15477)"/>
</g>
<defs>
<clipPath id="clip0_1135_15477">
<rect width="24" height="24" fill="white"/>
</clipPath>
</defs>
</svg>
