<svg width="24" height="24" viewBox="0 0 24 24" fill="none" xmlns="http://www.w3.org/2000/svg">
<path fill-rule="evenodd" clip-rule="evenodd" d="M19.3852 8.80224L12.5069 3.18202C12.363 3.06417 12.1844 3 12.0004 3C11.8164 3 11.6378 3.06417 11.4939 3.18202L4.61479 8.80224C4.42307 8.95893 4.26821 9.15806 4.16177 9.38478C4.05533 9.6115 4.00003 9.85997 4 10.1117V17.9919C4 18.5245 4.2059 19.0352 4.5724 19.4118C4.9389 19.7884 5.43599 20 5.9543 20H10.3718V16.0239C10.3718 15.802 10.4576 15.5892 10.6103 15.4323C10.763 15.2754 10.9702 15.1872 11.1861 15.1872H12.8147C13.0307 15.1872 13.2378 15.2754 13.3905 15.4323C13.5432 15.5892 13.629 15.802 13.629 16.0239V20H18.0457C18.564 20 19.0611 19.7884 19.4276 19.4118C19.7941 19.0352 20 18.5245 20 17.9919V10.1125C20 9.86081 19.9447 9.61233 19.8382 9.38561C19.7318 9.15889 19.5769 8.95977 19.3852 8.80307" fill="#333333"/>
</svg>
