<svg width="24" height="24" viewBox="0 0 24 24" fill="none" xmlns="http://www.w3.org/2000/svg">
<path d="M17.5996 9C17.8204 9 17.9999 9.26842 18 9.59961C18 9.93098 17.8205 10.2002 17.5996 10.2002H6.40039C6.17948 10.2002 6 9.93098 6 9.59961C6.00014 9.26842 6.17956 9 6.40039 9H17.5996Z" fill="#999999"/>
<path fill-rule="evenodd" clip-rule="evenodd" d="M16.8037 2C17.0515 2 17.2896 2.09827 17.4648 2.27344C17.6401 2.44866 17.7382 2.68677 17.7383 2.93457V3.86914H19.2617C19.7574 3.86914 20.2325 4.06652 20.583 4.41699C20.9335 4.76749 21.1308 5.24261 21.1309 5.73828V20.1309C21.1308 20.6265 20.9335 21.1017 20.583 21.4521C20.2325 21.8026 19.7574 22 19.2617 22H4.86914C4.37355 21.9999 3.8983 21.8026 3.54785 21.4521C3.19742 21.1017 3.00005 20.6265 3 20.1309V5.73828C3.00004 5.24266 3.19742 4.76748 3.54785 4.41699C3.8983 4.06655 4.37355 3.86924 4.86914 3.86914H6.39258V2.93457C6.39262 2.68677 6.49177 2.44866 6.66699 2.27344C6.84216 2.09851 7.07959 2.00007 7.32715 2C7.57491 2 7.81304 2.0983 7.98828 2.27344C8.16351 2.44866 8.26167 2.68677 8.26172 2.93457V3.86914H15.8691V2.93457C15.8692 2.68677 15.9674 2.44866 16.1426 2.27344C16.3178 2.09821 16.5559 2.00004 16.8037 2ZM4.86914 5.36914C4.79638 5.36921 4.72546 5.39127 4.66504 5.43164L4.6084 5.47754C4.55585 5.53013 4.52092 5.59635 4.50684 5.66699L4.5 5.73828V20.1309C4.50005 20.2275 4.53849 20.3216 4.6084 20.3916L4.66504 20.4375C4.72546 20.4779 4.79638 20.4999 4.86914 20.5H19.2617C19.3583 20.5 19.4523 20.4617 19.5225 20.3916L19.5684 20.335C19.5954 20.2945 19.6146 20.2495 19.624 20.2021L19.6309 20.1309V5.73828C19.6308 5.66556 19.6088 5.59467 19.5684 5.53418L19.5225 5.47754C19.4524 5.40749 19.3583 5.36914 19.2617 5.36914H4.86914Z" fill="#999999"/>
</svg>
