<svg width="24" height="24" viewBox="0 0 24 24" fill="none" xmlns="http://www.w3.org/2000/svg">
<g clip-path="url(#clip0_1135_15479)">
<mask id="path-1-inside-1_1135_15479" fill="white">
<path d="M16.8037 2C17.0515 2 17.2896 2.09827 17.4648 2.27344C17.6401 2.44866 17.7382 2.68677 17.7383 2.93457V3.86914H19.2617C19.7574 3.86914 20.2325 4.06652 20.583 4.41699C20.9335 4.76749 21.1308 5.24261 21.1309 5.73828V20.1309C21.1308 20.6265 20.9335 21.1017 20.583 21.4521C20.2325 21.8026 19.7574 22 19.2617 22H4.86914C4.37355 21.9999 3.8983 21.8026 3.54785 21.4521C3.19742 21.1017 3.00005 20.6265 3 20.1309V5.73828C3.00004 5.24266 3.19742 4.76748 3.54785 4.41699C3.8983 4.06655 4.37355 3.86924 4.86914 3.86914H6.39258V2.93457C6.39262 2.68677 6.49177 2.44866 6.66699 2.27344C6.84216 2.09851 7.07959 2.00007 7.32715 2C7.57491 2 7.81304 2.0983 7.98828 2.27344C8.16351 2.44866 8.26167 2.68677 8.26172 2.93457V3.86914H15.8691V2.93457C15.8692 2.68677 15.9674 2.44866 16.1426 2.27344C16.3178 2.09821 16.5559 2.00004 16.8037 2Z"/>
</mask>
<path d="M16.8037 2V0.5H16.8035L16.8037 2ZM17.4648 2.27344L18.5255 1.21278L18.5253 1.21253L17.4648 2.27344ZM17.7383 2.93457H19.2383V2.9343L17.7383 2.93457ZM17.7383 3.86914H16.2383V5.36914H17.7383V3.86914ZM19.2617 3.86914V2.36914V3.86914ZM20.583 4.41699L21.6437 3.35633L21.6436 3.35626L20.583 4.41699ZM21.1309 5.73828H22.6309V5.73817L21.1309 5.73828ZM21.1309 20.1309L22.6309 20.131V20.1309H21.1309ZM20.583 21.4521L21.6436 22.5129L21.6437 22.5128L20.583 21.4521ZM4.86914 22L4.86885 23.5H4.86914V22ZM3.54785 21.4521L2.48712 22.5127L2.48719 22.5128L3.54785 21.4521ZM3 20.1309H1.5V20.131L3 20.1309ZM3 5.73828L1.5 5.73817V5.73828H3ZM3.54785 4.41699L2.48719 3.35633L2.48711 3.35642L3.54785 4.41699ZM4.86914 3.86914V2.36914L4.86885 2.36914L4.86914 3.86914ZM6.39258 3.86914V5.36914H7.89258V3.86914H6.39258ZM6.39258 2.93457L4.89258 2.9343V2.93457H6.39258ZM6.66699 2.27344L5.60705 1.21206L5.60633 1.21278L6.66699 2.27344ZM7.32715 2V0.5H7.32675L7.32715 2ZM7.98828 2.27344L9.04894 1.21278L9.04861 1.21245L7.98828 2.27344ZM8.26172 2.93457H9.76172V2.9343L8.26172 2.93457ZM8.26172 3.86914H6.76172V5.36914H8.26172V3.86914ZM15.8691 3.86914V5.36914H17.3691V3.86914H15.8691ZM15.8691 2.93457L14.3691 2.9343V2.93457H15.8691ZM16.1426 2.27344L15.0819 1.21276L15.0819 1.21278L16.1426 2.27344ZM16.8037 2V3.5C16.6551 3.5 16.5114 3.44126 16.4044 3.33435L17.4648 2.27344L18.5253 1.21253C18.0678 0.755281 17.4479 0.5 16.8037 0.5V2ZM17.4648 2.27344L16.4042 3.3341C16.2968 3.22668 16.2383 3.08278 16.2383 2.93484L17.7383 2.93457L19.2383 2.9343C19.2382 2.29076 18.9834 1.67064 18.5255 1.21278L17.4648 2.27344ZM17.7383 2.93457H16.2383V3.86914H17.7383H19.2383V2.93457H17.7383ZM17.7383 3.86914V5.36914H19.2617V3.86914V2.36914H17.7383V3.86914ZM19.2617 3.86914V5.36914C19.3584 5.36914 19.4523 5.40763 19.5224 5.47773L20.583 4.41699L21.6436 3.35626C21.0127 2.72541 20.1564 2.36914 19.2617 2.36914V3.86914ZM20.583 4.41699L19.5223 5.47765C19.5923 5.54759 19.6309 5.64153 19.6309 5.7384L21.1309 5.73828L22.6309 5.73817C22.6308 4.84369 22.2747 3.98738 21.6437 3.35633L20.583 4.41699ZM21.1309 5.73828H19.6309V20.1309H21.1309H22.6309V5.73828H21.1309ZM21.1309 20.1309L19.6309 20.1307C19.6308 20.2276 19.5923 20.3216 19.5223 20.3915L20.583 21.4521L21.6437 22.5128C22.2747 21.8818 22.6308 21.0254 22.6309 20.131L21.1309 20.1309ZM20.583 21.4521L19.5224 20.3914C19.4523 20.4615 19.3583 20.5 19.2617 20.5V22V23.5C20.1564 23.5 21.0127 23.1437 21.6436 22.5129L20.583 21.4521ZM19.2617 22V20.5H4.86914V22V23.5H19.2617V22ZM4.86914 22L4.86943 20.5C4.77239 20.5 4.67831 20.4613 4.60851 20.3915L3.54785 21.4521L2.48719 22.5128C3.11828 23.1439 3.9747 23.4998 4.86885 23.5L4.86914 22ZM3.54785 21.4521L4.60859 20.3916C4.5386 20.3216 4.50001 20.2275 4.5 20.1307L3 20.1309L1.5 20.131C1.50008 21.0255 1.85624 21.8818 2.48712 22.5127L3.54785 21.4521ZM3 20.1309H4.5V5.73828H3H1.5V20.1309H3ZM3 5.73828L4.5 5.7384C4.50001 5.64167 4.53858 5.5476 4.6086 5.47757L3.54785 4.41699L2.48711 3.35642C1.85627 3.98736 1.50007 4.84365 1.5 5.73817L3 5.73828ZM3.54785 4.41699L4.60851 5.47765C4.67831 5.40785 4.77239 5.36916 4.86943 5.36914L4.86914 3.86914L4.86885 2.36914C3.9747 2.36931 3.11828 2.72524 2.48719 3.35633L3.54785 4.41699ZM4.86914 3.86914V5.36914H6.39258V3.86914V2.36914H4.86914V3.86914ZM6.39258 3.86914H7.89258V2.93457H6.39258H4.89258V3.86914H6.39258ZM6.39258 2.93457L7.89258 2.93484C7.89255 3.0868 7.83223 3.22952 7.72765 3.3341L6.66699 2.27344L5.60633 1.21278C5.1513 1.66781 4.89269 2.28674 4.89258 2.9343L6.39258 2.93457ZM6.66699 2.27344L7.72693 3.33482C7.6214 3.44021 7.47795 3.49996 7.32755 3.5L7.32715 2L7.32675 0.5C6.68122 0.500171 6.06291 0.756811 5.60705 1.21206L6.66699 2.27344ZM7.32715 2V3.5C7.17844 3.5 7.03483 3.44124 6.92795 3.33443L7.98828 2.27344L9.04861 1.21245C8.59125 0.755367 7.97138 0.5 7.32715 0.5V2ZM7.98828 2.27344L6.92762 3.3341C6.82021 3.22668 6.76174 3.08278 6.76172 2.93484L8.26172 2.93457L9.76172 2.9343C9.7616 2.29076 9.50681 1.67064 9.04894 1.21278L7.98828 2.27344ZM8.26172 2.93457H6.76172V3.86914H8.26172H9.76172V2.93457H8.26172ZM8.26172 3.86914V5.36914H15.8691V3.86914V2.36914H8.26172V3.86914ZM15.8691 3.86914H17.3691V2.93457H15.8691H14.3691V3.86914H15.8691ZM15.8691 2.93457L17.3691 2.93484C17.3691 3.08278 17.3107 3.22668 17.2032 3.3341L16.1426 2.27344L15.0819 1.21278C14.6241 1.67064 14.3693 2.29076 14.3691 2.9343L15.8691 2.93457ZM16.1426 2.27344L17.2032 3.33411C17.0958 3.44149 16.9519 3.49998 16.8039 3.5L16.8037 2L16.8035 0.5C16.1599 0.500101 15.5398 0.754939 15.0819 1.21276L16.1426 2.27344Z" fill="#999999" mask="url(#path-1-inside-1_1135_15479)"/>
<path d="M17.6 9C17.8209 9 18 9.26863 18 9.6C18 9.93137 17.8209 10.2 17.6 10.2H6.4C6.17909 10.2 6 9.93137 6 9.6C6 9.26863 6.17909 9 6.4 9H17.6Z" fill="#999999"/>
</g>
<defs>
<clipPath id="clip0_1135_15479">
<rect width="24" height="24" fill="white"/>
</clipPath>
</defs>
</svg>
