<svg width="24" height="24" viewBox="0 0 24 24" fill="none" xmlns="http://www.w3.org/2000/svg">
<path fill-rule="evenodd" clip-rule="evenodd" d="M16.4995 7.29709C16.4996 7.86144 16.3833 8.42029 16.1572 8.94171C15.9311 9.46313 15.5998 9.93692 15.182 10.336C14.7642 10.7351 14.2682 11.0517 13.7223 11.2678C13.1764 11.4838 12.5913 11.595 12.0005 11.595C10.8071 11.5952 9.66258 11.1425 8.81867 10.3366C7.97476 9.53078 7.50058 8.43774 7.50046 7.29796C7.5004 6.7336 7.61672 6.17476 7.84279 5.65334C8.06886 5.13192 8.40024 4.65813 8.81802 4.25903C9.66176 3.453 10.8062 3.00012 11.9995 3C13.1929 2.99988 14.3374 3.45255 15.1813 4.25841C16.0252 5.06427 16.4994 6.15731 16.4995 7.29709ZM12 12.9098C5.52048 12.9098 3 16.8482 3 18.6805C3 20.5119 8.36544 21 12 21C15.6346 21 21 20.5119 21 18.6805C21 16.8482 18.4795 12.9098 12 12.9098Z" fill="#333333"/>
</svg>
