<svg width="24" height="24" viewBox="0 0 24 24" fill="none" xmlns="http://www.w3.org/2000/svg">
<path d="M13.458 8.43948C15.0698 8.43948 15.8759 8.43978 16.2871 8.76956C16.6446 9.05635 16.8516 9.49097 16.8487 9.94925C16.8452 10.4763 16.3366 11.1018 15.3203 12.3526L13.8623 14.1465C13.2245 14.9316 12.9055 15.3243 12.5215 15.4668C12.1848 15.5917 11.8142 15.5918 11.4776 15.4668C11.0938 15.3242 10.7753 14.9313 10.1377 14.1465L8.67972 12.3526C7.66338 11.1017 7.15488 10.4764 7.1514 9.94925C7.14847 9.49092 7.3554 9.05635 7.71292 8.76956C8.12416 8.43976 8.93016 8.43948 10.542 8.43948H13.458Z" fill="#666666"/>
<path d="M13.8623 14.1465C13.2245 14.9316 12.9055 15.3243 12.5215 15.4668C12.1848 15.5917 11.8142 15.5918 11.4776 15.4668C11.0938 15.3242 10.7753 14.9313 10.1377 14.1465L8.67972 12.3526C7.66338 11.1017 7.15488 10.4764 7.1514 9.94925C7.14847 9.49092 7.3554 9.05635 7.71292 8.76956C8.12416 8.43976 8.93016 8.43948 10.542 8.43948H13.458C15.0698 8.43948 15.8759 8.43978 16.2871 8.76956C16.6446 9.05635 16.8516 9.49097 16.8487 9.94925C16.8452 10.4763 16.3366 11.1018 15.3203 12.3526L13.8623 14.1465Z" fill="#666666"/>
</svg>
