<svg width="24" height="24" viewBox="0 0 24 24" fill="none" xmlns="http://www.w3.org/2000/svg">
<g clip-path="url(#clip0_1135_15475)">
<mask id="path-1-inside-1_1135_15475" fill="white">
<path fill-rule="evenodd" clip-rule="evenodd" d="M19.3852 9.80224L12.5069 4.18202C12.363 4.06417 12.1844 4 12.0004 4C11.8164 4 11.6378 4.06417 11.4939 4.18202L4.61479 9.80224C4.42307 9.95893 4.26821 10.1581 4.16177 10.3848C4.05533 10.6115 4.00003 10.86 4 11.1117V18.9919C4 19.5245 4.2059 20.0352 4.5724 20.4118C4.9389 20.7884 5.43599 21 5.9543 21H10.3718V17.0239C10.3718 16.802 10.4576 16.5892 10.6103 16.4323C10.763 16.2754 10.9702 16.1872 11.1861 16.1872H12.8147C13.0307 16.1872 13.2378 16.2754 13.3905 16.4323C13.5432 16.5892 13.629 16.802 13.629 17.0239V21H18.0457C18.564 21 19.0611 20.7884 19.4276 20.4118C19.7941 20.0352 20 19.5245 20 18.9919V11.1125C20 10.8608 19.9447 10.6123 19.8382 10.3856C19.7318 10.1589 19.5769 9.95977 19.3852 9.80307"/>
</mask>
<path d="M12.5069 4.18202L11.5565 5.34254L11.5578 5.34357L12.5069 4.18202ZM12.0004 4V2.5V4ZM11.4939 4.18202L12.443 5.34363L12.4443 5.34254L11.4939 4.18202ZM4.61479 9.80224L3.66576 8.64062L3.66554 8.6408L4.61479 9.80224ZM4 11.1117L2.5 11.1115V11.1117H4ZM10.3718 21V22.5H11.8718V21H10.3718ZM13.629 21H12.129V22.5H13.629V21ZM18.0457 21V22.5V21ZM20 11.1125H21.5V11.1124L20 11.1125ZM19.3852 9.80224L20.3343 8.64068L13.456 3.02046L12.5069 4.18202L11.5578 5.34357L18.4361 10.9638L19.3852 9.80224ZM12.5069 4.18202L13.4573 3.0215C13.0484 2.68671 12.535 2.5 12.0004 2.5V4V5.5C11.8339 5.5 11.6775 5.44163 11.5565 5.34254L12.5069 4.18202ZM12.0004 4V2.5C11.4658 2.5 10.9524 2.68671 10.5436 3.0215L11.4939 4.18202L12.4443 5.34254C12.3233 5.44163 12.1669 5.5 12.0004 5.5V4ZM11.4939 4.18202L10.5449 3.02041L3.66576 8.64062L4.61479 9.80224L5.56382 10.9638L12.4429 5.34363L11.4939 4.18202ZM4.61479 9.80224L3.66554 8.6408C3.29812 8.9411 3.00459 9.32 2.80397 9.74729L4.16177 10.3848L5.51957 11.0223C5.53184 10.9961 5.54801 10.9768 5.56404 10.9637L4.61479 9.80224ZM4.16177 10.3848L2.80397 9.74729C2.60342 10.1745 2.50005 10.6406 2.5 11.1115L4 11.1117L5.5 11.1119C5.5 11.0793 5.50724 11.0485 5.51957 11.0223L4.16177 10.3848ZM4 11.1117H2.5V18.9919H4H5.5V11.1117H4ZM4 18.9919H2.5C2.5 19.9093 2.85431 20.7972 3.49743 21.458L4.5724 20.4118L5.64737 19.3657C5.55749 19.2733 5.5 19.1396 5.5 18.9919H4ZM4.5724 20.4118L3.49743 21.458C4.14191 22.1202 5.02481 22.5 5.9543 22.5V21V19.5C5.84716 19.5 5.7359 19.4566 5.64737 19.3657L4.5724 20.4118ZM5.9543 21V22.5H10.3718V21V19.5H5.9543V21ZM10.3718 21H11.8718V17.0239H10.3718H8.87183V21H10.3718ZM10.3718 17.0239H11.8718C11.8718 17.1869 11.8092 17.3511 11.6853 17.4784L10.6103 16.4323L9.53536 15.3861C9.10603 15.8273 8.87183 16.4171 8.87183 17.0239H10.3718ZM10.6103 16.4323L11.6853 17.4784C11.56 17.6071 11.3813 17.6872 11.1861 17.6872V16.1872V14.6872C10.559 14.6872 9.96604 14.9436 9.53536 15.3861L10.6103 16.4323ZM11.1861 16.1872V17.6872H12.8147V16.1872V14.6872H11.1861V16.1872ZM12.8147 16.1872V17.6872C12.6195 17.6872 12.4408 17.6071 12.3155 17.4784L13.3905 16.4323L14.4655 15.3861C14.0348 14.9436 13.4418 14.6872 12.8147 14.6872V16.1872ZM13.3905 16.4323L12.3155 17.4784C12.1916 17.3511 12.129 17.1869 12.129 17.0239H13.629H15.129C15.129 16.4171 14.8948 15.8273 14.4655 15.3861L13.3905 16.4323ZM13.629 17.0239H12.129V21H13.629H15.129V17.0239H13.629ZM13.629 21V22.5H18.0457V21V19.5H13.629V21ZM18.0457 21V22.5C18.9752 22.5 19.8581 22.1202 20.5026 21.458L19.4276 20.4118L18.3526 19.3657C18.2641 19.4566 18.1528 19.5 18.0457 19.5V21ZM19.4276 20.4118L20.5026 21.458C21.1457 20.7972 21.5 19.9093 21.5 18.9919H20H18.5C18.5 19.1396 18.4425 19.2733 18.3526 19.3657L19.4276 20.4118ZM20 18.9919H21.5V11.1125H20H18.5V18.9919H20ZM20 11.1125L21.5 11.1124C21.4999 10.6415 21.3966 10.1753 21.196 9.74813L19.8382 10.3856L18.4804 11.0231C18.4928 11.0494 18.5 11.0801 18.5 11.1127L20 11.1125ZM19.8382 10.3856L21.196 9.74813C20.9954 9.32084 20.7019 8.94194 20.3345 8.64164L19.3852 9.80307L18.436 10.9645C18.452 10.9776 18.4682 10.9969 18.4804 11.0231L19.8382 10.3856Z" fill="#999999" mask="url(#path-1-inside-1_1135_15475)"/>
</g>
<defs>
<clipPath id="clip0_1135_15475">
<rect width="24" height="24" fill="white"/>
</clipPath>
</defs>
</svg>
